<svg t="1678508036238" class="icon" viewBox="0 0 1024 1024" version="1.1" xmlns="http://www.w3.org/2000/svg" p-id="4044" width="200" height="200"><path d="M762.9 116.2c-7.2-14-25.9-25.5-41.7-25.5h-417c-15.8 0-34.5 11.5-41.7 25.5L176 285.3c-7.2 14-0.1 25.5 15.6 25.5h642.1c15.8 0 22.8-11.5 15.6-25.5l-86.4-169.1z" fill="#333E48" p-id="4045"></path><path d="M786.1 161.6H600.4v28.6h200.4l-14.7-28.6z m-561.4 28.7h200.4v-28.6H239.3l-14.6 28.6z" fill="" p-id="4046"></path><path d="M158.4 289.4h708.7v622.1H158.4z" fill="#00B3E3" p-id="4047"></path><path d="M766.3 377.5h100.8V426H766.3zM628.4 597.6h100.8v48.5H628.4zM504.1 376.7h100.8v48.5H504.1zM158.4 495h100.8v48.5H158.4zM237.5 332.9h100.8v48.5H237.5zM386.4 667.5h100.8V716H386.4z" fill="" p-id="4048"></path><path d="M208.7 799.2h100.8v48.5H208.7z" fill="#5D5D5D" p-id="4049"></path><path d="M766.3 796.5h100.8V845H766.3z" fill="" p-id="4050"></path><path d="M410.6 691.8h204.3v219.7H410.6z" fill="#FFFFFF" p-id="4051"></path><path d="M498.4 691.8H527V890h-28.6z" fill="" p-id="4052"></path><path d="M220.8 425.1h123.8v140H220.8z" fill="#FFFFFF" p-id="4053"></path><path d="M220.8 425.1h123.8V456H220.8z" fill="" p-id="4054"></path><path d="M220.8 480.7h123.8v28.6H220.8z" fill="#333E48" p-id="4055"></path><path d="M235.1 550.7h95.2V439.4h-95.2v111.3z m109.5 28.6H220.8c-7.9 0-14.3-6.4-14.3-14.3V425c0-7.9 6.4-14.3 14.3-14.3h123.8c7.9 0 14.3 6.4 14.3 14.3v140c0.1 7.9-6.4 14.3-14.3 14.3z" fill="#0071CE" p-id="4056"></path><path d="M450.8 425.1h123.8v140H450.8z" fill="#FFFFFF" p-id="4057"></path><path d="M450.8 425.1h123.8V456H450.8z" fill="" p-id="4058"></path><path d="M450.8 480.7h123.8v28.6H450.8z" fill="#333E48" p-id="4059"></path><path d="M465.1 550.7h95.2V439.4h-95.2v111.3z m109.5 28.6H450.8c-7.9 0-14.3-6.4-14.3-14.3V425c0-7.9 6.4-14.3 14.3-14.3h123.8c7.9 0 14.3 6.4 14.3 14.3v140c0 7.9-6.4 14.3-14.3 14.3z" fill="#0071CE" p-id="4060"></path><path d="M680.8 425.1h123.8v140H680.8z" fill="#FFFFFF" p-id="4061"></path><path d="M680.8 425.1h123.8V456H680.8z" fill="" p-id="4062"></path><path d="M680.8 480.7h123.8v28.6H680.8z" fill="#333E48" p-id="4063"></path><path d="M695.1 550.7h95.2V439.4h-95.2v111.3z m109.5 28.6H680.8c-7.9 0-14.3-6.4-14.3-14.3V425c0-7.9 6.4-14.3 14.3-14.3h123.8c7.9 0 14.3 6.4 14.3 14.3v140c0 7.9-6.4 14.3-14.3 14.3z" fill="#0071CE" p-id="4064"></path><path d="M220.8 621.8h123.8v140H220.8z" fill="#FFFFFF" p-id="4065"></path><path d="M220.8 621.8h123.8v30.9H220.8z" fill="" p-id="4066"></path><path d="M220.8 677.5h123.8v28.6H220.8z" fill="#333E48" p-id="4067"></path><path d="M235.1 747.4h95.2V636.1h-95.2v111.3z m109.5 28.7H220.8c-7.9 0-14.3-6.4-14.3-14.3v-140c0-7.9 6.4-14.3 14.3-14.3h123.8c7.9 0 14.3 6.4 14.3 14.3v140c0.1 7.9-6.4 14.3-14.3 14.3z" fill="#0071CE" p-id="4068"></path><path d="M680.8 621.8h123.8v140H680.8z" fill="#FFFFFF" p-id="4069"></path><path d="M680.8 621.8h123.8v30.9H680.8z" fill="" p-id="4070"></path><path d="M680.8 677.5h123.8v28.6H680.8z" fill="#333E48" p-id="4071"></path><path d="M695.1 747.4h95.2V636.1h-95.2v111.3z m109.5 28.7H680.8c-7.9 0-14.3-6.4-14.3-14.3v-140c0-7.9 6.4-14.3 14.3-14.3h123.8c7.9 0 14.3 6.4 14.3 14.3v140c0 7.9-6.4 14.3-14.3 14.3zM894.1 290.5c0-10.5-8.6-19.1-19.1-19.1H150.4c-10.5 0-19.1 8.6-19.1 19.1v23.2c0 10.5 8.6 19.1 19.1 19.1H875c10.5 0 19.1-8.6 19.1-19.1v-23.2z" fill="#0071CE" p-id="4072"></path><path d="M960.2 925.3c0 4.2-3.5 7.7-7.7 7.7H72.9c-4.2 0-7.7-3.5-7.7-7.7v-27.6c0-4.2 3.5-7.7 7.7-7.7h879.5c4.2 0 7.7 3.5 7.7 7.7v27.6z" fill="#333E48" p-id="4073"></path><path d="M349.9 889.9h325.7v43H349.9z" fill="#A4A9AD" p-id="4074"></path><path d="M545.2 121.4c-7.9 0-14.3 6.4-14.3 14.3v31h-36.3v-31c0-7.9-6.4-14.3-14.3-14.3s-14.3 6.4-14.3 14.3v90.7c0 7.9 6.4 14.3 14.3 14.3s14.3-6.4 14.3-14.3v-31h36.3v31c0 7.9 6.4 14.3 14.3 14.3s14.3-6.4 14.3-14.3v-90.7c0-7.9-6.4-14.3-14.3-14.3z" fill="#FFFFFF" p-id="4075"></path></svg>
